<?xml version="1.0" encoding="UTF-8" standalone="no"?>
<svg
   xmlns:dc="http://purl.org/dc/elements/1.1/"
   xmlns:cc="http://creativecommons.org/ns#"
   xmlns:rdf="http://www.w3.org/1999/02/22-rdf-syntax-ns#"
   xmlns:svg="http://www.w3.org/2000/svg"
   xmlns="http://www.w3.org/2000/svg"
   xmlns:sodipodi="http://sodipodi.sourceforge.net/DTD/sodipodi-0.dtd"
   xmlns:inkscape="http://www.inkscape.org/namespaces/inkscape"
   id="svg2"
   viewBox="0 0 1232.2873 992.74983"
   version="1.1"
   sodipodi:docname="Yellow-detached-house.svg"
   inkscape:version="0.92.1 r15371"
   width="1232.2872"
   height="992.74982">
  <defs
     id="defs4513" />
  <sodipodi:namedview
     pagecolor="#ffffff"
     bordercolor="#666666"
     borderopacity="1"
     objecttolerance="10"
     gridtolerance="10"
     guidetolerance="10"
     inkscape:pageopacity="0"
     inkscape:pageshadow="2"
     inkscape:window-width="1366"
     inkscape:window-height="706"
     id="namedview4511"
     showgrid="false"
     inkscape:snap-global="false"
     inkscape:zoom="0.265"
     inkscape:cx="528.21235"
     inkscape:cy="-315.56181"
     inkscape:window-x="-8"
     inkscape:window-y="-8"
     inkscape:window-maximized="1"
     inkscape:current-layer="svg2"
     fit-margin-top="0"
     fit-margin-left="0"
     fit-margin-right="0"
     fit-margin-bottom="0" />
  <path
     style="fill:#b1ebee;fill-opacity:1;stroke:none;stroke-width:1px;stroke-linecap:butt;stroke-linejoin:miter;stroke-opacity:1"
     d="M 52.885382,622.6369 C 44.818782,574.18768 13.654302,532.13374 21.119522,480.86869 3.7981918,432.78635 4.2746918,381.37553 0.37492183,330.69297 c -0.74102,-39.77979 -0.11923,-79.58414 -0.31973,-119.37683 C 41.504332,177.21076 36.952322,110.70183 86.063452,85.28984 111.3851,33.26305 169.25242,29.21467 221.39316,22.13597 271.21166,12.02783 320.07828,-0.99768 371.31842,3.55249 430.70059,6.42892 489.87263,0.79026 549.09911,0 c 54.92351,4.21126 110.77927,8.78119 164.2929,21.09111 36.93902,30.50056 82.26241,36.05809 128.54513,31.75316 50.93162,2.76716 98.06466,-13.97865 149.68792,-7.34024 59.99834,-9.46972 53.69564,52.64662 70.49704,89.2452 32.7446,28.70712 17.0406,84.90405 48.0831,104.11619 -0.1943,45.92548 7.8862,94.34619 26.1738,136.85113 29.4197,29.14692 58.3686,72.13987 30.6265,112.87308 -23.5974,39.23351 12.6238,78.80713 8.8267,112.97559 -20.1345,36.62882 -48.41,67.17593 -87.3302,84.64668 -34.5082,13.1272 -78.2529,15.05047 -106.92799,-9.85329 -46.03207,-22.97767 -96.6249,-3.72488 -145.14979,-8.1964 -96.07477,-5.57152 -192.47313,-4.58365 -288.62459,-3.2303 -41.32683,7.11085 -69.07454,55.71193 -115.49053,39.93893 C 364.20852,688.32743 295.63633,664.71648 224.55601,668.19742 180.66267,659.2715 136.28982,650.42278 91.827802,647.86208 76.126752,643.9555 71.984722,618.68262 52.885382,622.6369 Z"
     id="path4548"
     inkscape:connector-curvature="0" />
  <path
     style="fill:#559b52;fill-opacity:1;stroke:none;stroke-width:1px;stroke-linecap:butt;stroke-linejoin:miter;stroke-opacity:1"
     d="m 49.111792,607.54256 c -30.28638,51.82593 -61.74266,113.20452 -40.4994302,174.24808 4.1279702,52.68177 -18.11425,114.18081 21.0177802,158.52285 47.7854,32.57644 107.939748,21.00623 162.048228,20.40342 43.7441,-33.68616 86.35624,27.93334 131.5651,12.6275 61.49676,-7.25284 120.10848,33.43449 181.69835,14.17901 50.60334,-10.42842 102.64077,-21.86521 154.22184,-10.90564 70.19415,4.06831 141.98531,-18.42935 210.61999,5.25432 57.41488,8.53566 115.32037,-5.7686 172.80075,-1.64604 55.3235,-8.02103 114.4202,10.20395 166.7962,-14.93957 15.6178,-53.90212 5.3708,-110.89416 6.5326,-166.01247 -4.2475,-51.86659 -7.0219,-103.86489 -12.7929,-155.59834 -34.6603,-49.98331 -105.7075,-38.51706 -156.5451,-59.15361 -118.51282,-8.16581 -237.55274,1.41499 -356.16889,-6.36384 -63.84139,-1.68666 -127.88786,11.03973 -187.49064,32.70231 -57.54856,2.64107 -114.0184,-22.47309 -171.55915,-9.4539 -92.58405,4.72943 -185.70417,-0.82076 -278.053188,5.09537 l -2.49727,0.61995 z"
     id="path4517"
     inkscape:connector-curvature="0" />
  <path
     style="fill:#a05a2c;stroke:none;stroke-width:1px;stroke-linecap:butt;stroke-linejoin:miter;stroke-opacity:1"
     d="m 395.60236,718.52369 c 37.61307,8.1242 76.33219,1.27496 114.27083,3.77878 20.97563,8.78335 41.74918,17.29944 64.73761,14.83731 18.32679,9.58724 37.51854,14.70294 58.07762,11.32491 21.24338,1.37452 42.34466,6.62396 63.70697,4.0078 21.72962,1.06944 45.78397,1.3931 63.37947,-13.50718 18.43331,-6.43098 48.33018,-10.24548 43.1563,-36.81987 9.01521,-2.82723 18.234,-10.10453 5.3295,-17.34742 -15.59343,-3.05962 -9.95253,-24.48018 -11.33072,-39.92981 -12.95508,-14.68506 -51.09114,3.39687 -64.7553,-10.93509 -19.28797,-7.99634 -40.75077,-11.72663 -61.82929,-10.79355 -31.7462,2.47309 -63.91323,2.66122 -95.33133,-2.76008 -24.58364,0.11205 -49.16753,0.004 -73.75128,0.031 -11.11134,15.55932 -36.36592,6.85361 -52.74299,10.98548 -24.96521,-7.29061 -37.69029,21.82882 -61.84651,15.78909 -25.57183,-6.14522 -49.14316,4.731 -63.80727,25.8839 -20.47689,20.75525 6.62844,37.90806 27.23135,37.59494 15.09572,3.19733 30.55498,4.15243 45.50504,7.85983 z"
     id="path4552"
     inkscape:connector-curvature="0"
     sodipodi:nodetypes="ccccccccccccccccccc" />
  <path
     style="fill:#ae6342;fill-opacity:1;stroke:none;stroke-width:1px;stroke-linecap:butt;stroke-linejoin:miter;stroke-opacity:1"
     d="m 883.07406,588.67463 c -3.63627,18.74948 -9.1377,36.95728 -16.68911,54.49124 -7.83922,12.2755 -7.89189,25.03849 -14.10612,37.31586 -4.08586,13.92213 -7.01507,28.82916 -12.12421,43.02349 -1.74999,12.15852 -8.72647,23.15383 -10.80713,35.28658 -5.43284,13.92313 -11.99519,28.61074 -9.82697,43.72539 -3.53997,17.31339 -5.52636,34.75889 -4.35664,52.50866 -0.015,29.57316 -0.1087,59.14681 0.10357,88.71954 -6.84926,-0.37676 -4.74126,14.41271 -11.19173,18.82927 -1.91485,12.2071 12.13342,5.85158 17.37365,11.51954 14.851,1.11486 27.55831,5.16489 44.24336,3.28692 12.15522,-2.68183 13.05731,5.88417 24.7229,4.05416 7.93929,6.66058 29.99192,1.44006 43.3161,6.32627 16.25558,0.46004 38.55346,3.46758 51.32253,-1.33997 -0.91574,-14.20682 34.61204,-5.63025 17.50184,-21.42722 -14.54868,-6.52317 -27.41145,-15.78921 -41.37728,-23.50368 -14.78912,-16.76597 30.46181,-2.54331 16.23486,-20.74057 -3.98653,-6.18948 -16.31767,-13.84873 -9.24075,-23.16219 11.6251,-0.31934 2.635,-23.32321 5.48795,-33.45389 -2.41886,-16.15293 -5.40421,-31.90641 -3.78964,-49.26058 1.3629,-10.11331 -9.50548,-24.62091 3.82104,-24.57869 8.1567,-6.97071 28.37532,-4.86765 25.70715,-21.63468 -7.45189,1.51355 -17.21865,-7.9554 -21.99946,-8.48585 -1.68191,-11.14924 4.08439,-28.74742 -4.20704,-34.0113 0.53032,-6.04178 -17.00026,-11.79499 -15.2722,-22.8126 -8.80836,-8.7809 -3.27121,-23.75149 4.52132,-28.52573 0.7491,-18.27777 0.36328,-37.922 -11.34452,-53.09963 -3.35037,-7.77711 -10.3775,-13.54036 -8.76375,-21.06147 -13.53078,-3.02768 -23.78145,-3.97758 -38.04347,-6.7019 -6.25014,-2.61416 -14.39413,-2.67132 -21.21625,-5.28697 z"
     id="path4524"
     inkscape:connector-curvature="0" />
  <path
     style="opacity:1;fill:#3d523c;fill-opacity:1;stroke:#613f2d;stroke-width:2.79999995;stroke-linecap:round;stroke-linejoin:bevel;stroke-miterlimit:4;stroke-dasharray:none;stroke-dashoffset:1.21209455;stroke-opacity:1;paint-order:stroke fill markers"
     id="path4515"
     d="m 45.033972,589.46995 c 14.70052,0.92748 29.38495,0.25589 44.07697,-0.37215 29.156428,-0.89351 58.322128,-1.6049 87.487468,-2.16698 18.26164,-0.40358 36.52344,-0.67885 54.78834,-0.85235 10.95251,-0.17916 21.90423,-0.17791 32.85676,-0.0282 17.16483,0.27738 34.33239,0.29968 51.49902,0.26993 15.13993,-0.11029 30.28036,-0.1727 45.42062,-0.21147 14.00426,0.0485 28.00805,-0.005 42.01238,0.0394 12.38381,0.0595 24.76711,-0.10949 37.15022,-0.21543 8.40541,-0.0479 16.81133,-0.15699 25.21606,-0.0146 11.75681,0.13631 23.51503,0.1682 35.27249,0.1038 7.73663,0.0391 15.47441,-0.0854 23.21086,0.0164 2.50397,0.0329 5.02649,0.46584 7.511,0.15256 3.41432,-0.43051 6.69942,-1.57781 10.04913,-2.36672 19.73912,-5.90412 38.81584,-13.75314 59.04364,-17.88095 14.8408,-3.38284 29.94795,-5.01374 45.12178,-5.79165 22.53864,-2.68488 44.71677,-7.84257 66.84878,-12.77665 19.99942,-5.07108 40.79425,-7.77047 61.02087,-2.78966 10.86364,2.75493 20.66175,8.30991 31.31005,11.69859 8.63782,1.80385 17.09677,4.32819 25.81475,5.7595 7.81517,1.07247 15.72066,1.15138 23.59506,1.2422 13.72997,0.15598 27.45634,0.39963 41.18762,0.35406 11.14146,0.54279 22.19371,2.09054 33.31804,2.8589 9.12142,0.52088 18.26281,0.56986 27.39665,0.57932 1.6569,0.01 3.32933,0.25645 4.97069,0.0298 0.99816,-0.1378 13.0029,-3.38776 13.43139,-3.49743 7.34213,-1.87919 14.46718,-3.50234 21.99171,-4.38991 9.15068,-0.64805 18.89518,0.39675 27.54198,3.61397 7.5038,3.1016 15.7513,3.44832 23.7566,3.92133 14.509,2.16636 28.9287,4.70385 43.5245,6.26061 18.1562,1.0586 36.2718,2.47549 54.4091,3.8424 14.2395,1.89779 28.5445,3.12596 42.6117,6.07066 7.8337,1.99504 15.0554,5.54031 22.6175,8.24174 6.1521,1.81255 12.6079,2.0754 18.9801,2.15402 0.4303,-0.01 0.8607,-0.0192 1.2911,-0.0289 0,0 -42.4975,36.93501 -42.4975,36.93501 v 0 c -0.2912,-0.0608 -0.5825,-0.12161 -0.8737,-0.18241 -6.7691,-0.6108 -13.6283,-1.02212 -20.0088,-3.6116 -7.1111,-2.94976 -14.1576,-6.05387 -21.6698,-7.90377 -13.5869,-3.03423 -27.475,-4.50923 -41.2733,-6.25021 -18.2342,-1.49416 -36.4875,-2.42071 -54.7263,-3.80398 -14.7035,-1.721 -29.3041,-4.24517 -44.0647,-5.46401 -8.47795,-0.61781 -17.04169,-1.48171 -24.99431,-4.70097 -8.18579,-2.26519 -16.69633,-3.55359 -25.17244,-2.33783 -13.85242,2.23959 -27.23547,7.56565 -41.34737,7.65505 -9.26956,-0.0788 -18.54879,-0.0884 -27.79661,-0.81639 -10.7132,-1.07551 -21.35797,-2.86942 -32.1313,-3.27363 -14.02673,-0.0208 -28.04739,0.31705 -42.07368,0.3202 -8.12666,-0.12657 -16.28493,-0.30665 -24.28784,-1.89371 -8.77356,-1.82306 -17.45922,-4.14472 -26.07893,-6.57187 -10.27329,-3.70177 -19.98916,-8.90743 -30.61791,-11.56969 -19.23093,-4.192 -38.74366,-1.45064 -57.71687,3.0667 -22.89036,5.0223 -45.65652,11.48492 -69.04824,13.62528 -14.94666,1.00577 -29.82477,2.81775 -44.42402,6.28303 -19.84816,4.49668 -38.83376,11.83793 -58.42543,17.27491 -3.82486,0.71571 -7.61059,1.68747 -11.47459,2.14713 -10.25577,1.22003 -20.81777,-0.53327 -31.10508,0.16893 -11.83596,-0.0657 -23.67263,-0.0299 -35.50796,0.1038 -8.39378,0.13692 -16.7885,0.0387 -25.1829,-0.0146 -12.2202,-0.10662 -24.44059,-0.27653 -36.66151,-0.21542 -14.03421,0.0443 -28.06787,-0.009 -42.102,0.0396 -14.98039,-0.0385 -29.96098,-0.1002 -44.94104,-0.21151 -17.36769,-0.031 -34.73613,-0.004 -52.10221,0.25878 -10.91355,0.13537 -21.82581,0.12373 -32.73891,-0.0707 -17.78727,-0.16386 -35.57558,-0.34125 -53.36361,-0.31068 -29.28285,0.22047 -58.580558,0.55696 -87.797598,2.74305 -15.36866,1.05011 -30.72268,1.49675 -46.1211102,1.77679 0,0 41.9926402,-37.02149 41.9926402,-37.02149 z"
     inkscape:connector-curvature="0" />
  <path
     style="fill:#c56c45;fill-opacity:1;stroke:none;stroke-width:1px;stroke-linecap:butt;stroke-linejoin:miter;stroke-opacity:1"
     d="m 845.33821,973.58029 c 0.52158,-11.51402 -14.63096,-22.04709 -8.64407,-30.58068 10.1586,-0.2756 2.73703,-20.11551 4.71081,-28.82007 -2.74376,-11.62939 5.82925,-19.46737 16.57811,-16.11814 9.94959,-11.2837 -4.33365,-23.51901 -1.15953,-35.44936 0.84302,-10.31464 -7.42121,-14.33887 -3.88418,-25.82377 1.64678,-7.54337 -3.92715,-24.99117 3.29829,-26.31296 6.55757,5.06899 2.82551,-20.20828 5.18979,-26.80182 3.8312,-10.68757 5.76476,-23.18478 14.21349,-32.44759 -0.20327,-20.1691 -0.10153,-40.44048 -0.11403,-60.66447 8.49335,0.45161 26.24441,2.13112 15.0945,-9.90158 10e-4,-24.37243 -0.006,-48.74486 -1.6e-4,-73.11729 6.4835,1.53627 2.62777,-14.99548 10.30026,-5.14367 2.65014,9.98515 23.69995,0.89721 16.07253,17.86501 0.38384,10.82423 1.23307,20.25623 -4.67301,27.66615 -1.02604,11.13062 7.2562,17.01546 13.76843,22.94996 -10.37123,2.9961 18.18871,3.24123 9.81481,14.55391 -2.20038,10.88109 4.79955,27.53472 -4.26407,33.7028 -5.41103,1.16379 -2.82297,20.24602 -8.58639,11.17448 -7.42462,12.11214 0.58948,24.34203 1.85287,36.01851 5.78882,9.74946 -0.0494,24.84878 9.19228,30.04473 6.48244,2.42648 1.52273,16.84162 -4.9798,10.73035 2.29691,13.52919 -14.06468,8.76439 -16.49121,17.73968 -3.07169,9.43291 14.07427,18.43561 14.72972,20.23975 6.20617,-4.66408 6.90755,19.59434 -0.42783,10.4632 -4.34795,7.723 0.27499,16.71796 -8.55904,20.45904 -4.63039,12.59095 -0.86268,25.66921 6.80634,34.17952 -0.36577,2.35952 4.68377,5.40563 4.0832,10.85863 15.65974,0.24037 -7.48612,8.00968 -0.69743,17.17784 -1.67752,12.31002 2.39596,29.9621 -2.06563,39.0179 -4.62465,7.05308 -10.90816,2.89496 -14.98316,11.76782 -10.78056,-0.93673 -22.10713,1.5659 -28.44004,-4.10712 -7.61608,-6.43188 -24.9715,-0.73218 -35.73216,-9.94742 z"
     id="path4528"
     inkscape:connector-curvature="0" />
  <g
     id="layer1"
     transform="rotate(-12,-898.0937,-315.60241)">
    <g
       id="g3003"
       transform="matrix(0.75232,0,0,0.75232,-62.457,287.1)">
      <path
         id="path3381"
         d="m 270.96,363 c -0.48937,0.0916 -0.97872,0.18352 -1.4681,0.27512 -7.4202,2.0153 -11.674,9.0227 -14.773,15.507 -26.886,33.594 -55.04,66.168 -80.195,101.11 -30.445,40.659 -57.221,83.944 -84.966,126.44 -1.5741,3.3261 -6.5063,5.8565 -5.4136,9.8179 2.4299,7.7052 10.609,10.971 16.883,14.956 9.8966,5.701 20.181,11.15 31.38,13.763 5.7694,6.261 3.157,15.317 3.3949,22.939 -0.29547,73.593 2.0359,147.17 1.4681,220.76 13.73,10.303 30.028,16.199 45.694,22.847 34.321,12.251 69.931,20.272 104.69,31.105 59.312,17.097 118.52,34.772 178.56,49.181 14.803,3.2742 29.538,7.2688 44.502,9.72608 6.1027,0.8186 12.24,0.4484 18.351,-0.092 1.5081,2.2076 6.0725,7.309 7.524,2.4774 1.8563,-4.28118 6.8848,-5.39838 11.102,-5.04658 11.987,-0.43599 23.535,-3.9177 34.959,-7.2487 99.36,-25.7 198.63,-51.66 298.13,-76.79 3.1118,-2.1624 8.2018,0.8764 10.368,-3.0279 -0.2026,-4.8032 -2.665,-9.3559 -1.7434,-14.222 -0.22755,-22.664 1.2609,-45.328 1.3763,-67.991 0.97349,-43.56 1.9635,-87.102 3.0279,-130.66 -1.8372,-3.4996 4.3833,-6.8254 6.4229,-3.4867 8.4982,3.854 16.747,9.4755 21.104,17.984 -0.94419,-3.3016 3.5146,-7.6992 6.4229,-4.7713 2.3133,3.8327 2.9636,8.8713 6.7899,11.653 3.8189,-3.6115 0.50168,-8.9498 -1.1928,-12.754 -10.847,-30 -20.591,-60.69 -36.427,-88.544 -22.772,-36.023 -32.059,-42.758 -36.702,-54.319 -4.6436,-11.561 -21.493,-30.785 -33.124,-45.511 -17.094,-21.022 -36.189,-40.573 -58.081,-56.613 -16.47,-10.271 -36.469,-10.877 -55.145,-13.488 -40.162,-4.8817 -80.183,-10.74 -120.11,-17.158 -0.48411,-0.27424 -1.009,-0.38455 -1.6516,-0.27512 -22.23,-3.5828 -44.429,-7.3018 -66.615,-11.194 -51.95,-9.1154 -103.86,-18.574 -155.53,-29.178 -19.555,-4.1431 -39.134,-8.4482 -58.448,-13.58 -13.485,-4.8194 -25.692,-14.5 -40.556,-14.589 z"
         inkscape:connector-curvature="0" />
      <path
         id="path3379"
         d="m 294.73,395.57 c 1.0043,-0.006 2.0022,0.14622 2.9651,0.38259 18.995,4.4114 38.007,8.7069 57.101,12.721 -18.594,11.249 -34.909,25.935 -52.606,38.546 -22.441,17.477 -46.148,33.374 -68.101,51.458 -5.3733,19.455 18.605,20.991 18.556,23.529 -0.1054,5.4203 0.12009,10.936 -0.66953,15.973 -0.79706,26.384 -3.2904,53.022 0.66953,79.196 8.9571,14.407 30.309,14.026 44.763,20.851 48.164,14.72 96.799,27.68 145.38,40.937 3.1375,-0.82542 5.402,-2.3325 7.0779,-4.3041 2.3812,-0.49733 4.3714,-2.1089 6.2171,-3.6346 2.4864,-2.1476 4.112,-5.1091 6.4084,-7.4605 4.436,-5.1067 9.1225,-9.9184 13.773,-14.825 2.6511,-3.2078 5.3582,-6.4378 7.4605,-10.043 13.205,-19.785 26.548,-39.48 39.407,-59.493 6.511,-10.77 11.657,-22.307 17.025,-33.668 8.5056,-18.396 16.793,-36.833 24.964,-55.38 0.88191,-2.1711 2.063,-4.2786 2.7738,-6.504 l -0.28687,0.47824 -114.49,183.83 c 2.7487,-10.714 -0.95347,-26.31 2.0086,-36.059 1.5809,-24.527 -3.8266,-47.408 -1.1478,-71.831 -0.53321,1.5259 17.209,2.3522 27.26,-8.6082 21.94,-23.926 52.941,-51.187 68.292,-66.857 17.774,-14.952 23.02,-19.074 35.103,-29.555 l -8.0344,13.391 c 3.3757,-4.8608 6.5944,-9.8242 9.756,-14.825 2.9072,-2.5304 5.6776,-4.993 9.6604,-8.5126 0.006,-0.32809 0.0118,-0.65262 0,-0.95646 42.578,5.4103 85.112,10.842 127.69,16.26 3.7464,-2.2794 8.5179,4.3929 4.4954,6.791 -24.767,23.901 -47.105,50.039 -70.683,75.083 -52.879,58.033 -103.79,118.14 -148.06,183.07 -1.8354,3.6134 -5.5464,7.2915 -9.9473,5.8345 -7.7505,-1.1468 -14.726,-5.1961 -22.477,-6.4084 -107.17,-27.64 -214.45,-54.79 -321.2,-83.97 l -60.353,-16.26 c -4.0808,-2.2262 -2.4139,-8.2218 0.76517,-10.521 43.925,-51.164 87.398,-102.85 126.54,-157.82 18.913,-24.281 43.184,-43.799 68.962,-60.353 0.9502,-0.30874 1.9608,-0.47244 2.9651,-0.47825 z"
         inkscape:connector-curvature="0"
         style="fill:#800000" />
      <path
         id="path3377"
         d="m 360.33,408.79 c 29.318,6.1118 58.788,11.55 88.453,15.69 40.818,5.4872 81.723,10.497 122.59,15.69 -5.4305,3.087 -10.669,7.0958 -13.213,9.2673 -38.259,28.597 -58.127,63.452 -95.426,93.224 -14.447,2.4753 -59.008,-8.4857 -73.313,-11.011 -35.971,-9.4237 -95.663,-18.195 -131.49,-27.986 -6.7418,-13.261 16.758,-20.845 25.233,-28.169 19.166,-12.441 30.715,-33.612 50.374,-45.603 9.0961,-6.8378 17.878,-14.031 26.793,-21.104 z"
         inkscape:connector-curvature="0"
         style="fill:#800000" />
      <path
         id="path3375"
         d="m 751.67,470.81 c 26.365,18.126 45.102,44.597 64.688,69.367 18.323,23.563 35.764,47.77 53.402,71.845 0.88688,0.28833 1.5046,0.62725 1.1011,0.91755 l 3.9455,6.5147 c 3.8843,6.7899 33.185,62.302 37.069,69.092 -3.814,-1.0453 -22.188,-13.817 -33.674,-20.92 -0.19056,-2.5892 -1.0267,-5.1665 -2.1104,-7.4322 -6.4959,-17.837 -10.304,-18.88 -31.013,-48.264 -14.851,-21.32 -29.928,-42.516 -45.327,-63.403 -12.418,-16.943 -24.626,-33.999 -38.446,-49.732 -4.1983,-4.7475 -8.2531,-9.6881 -12.662,-14.222 -1.9643,-1.9319 -4.1285,-3.7456 -6.4229,-5.2301 0.82947,-0.91409 1.6481,-1.8384 2.4774,-2.7527 2.5315,-1.6294 3.3948,-5.9984 6.9734,-5.7806 z"
         inkscape:connector-curvature="0"
         style="fill:#800000" />
      <path
         id="path3373"
         d="m 737.35,484.58 c 0.80672,0.20817 1.5432,0.60805 2.2939,1.1011 8.8938,8.4324 17.139,17.56 24.774,27.251 5.6545,7.1621 11.277,14.387 16.7,21.746 8.2128,10.89 16.248,21.932 24.315,32.94 21.156,29.748 42.063,59.678 61.568,90.655 0.83347,1.3086 1.6436,2.6372 2.4774,3.9455 -8e-4,0.13771 0,0.51815 0,0.64229 0.14299,0.0326 0.36652,0.19262 0.55053,0.27512 0.23666,0.37155 0.49724,0.72956 0.73405,1.1011 1.3219,72.415 1.8998,144.86 0.73404,217.28 1.5397,3.4218 -0.6824,8.6642 -4.863,8.4415 -59.451,15.1 -118.52,31.564 -177.46,48.539 -0.38012,-30.419 -0.86926,-60.876 -0.45878,-91.297 0.65122,-21.964 2.3078,-43.862 3.4867,-65.789 0.49149,-8.1774 0.87396,-16.31 1.1011,-24.499 -1.1148,-18.354 -1.8269,-36.742 -2.0186,-55.145 -0.38246,-5.5337 0.10864,-11.448 -1.8351,-16.608 0.99539,-4.1778 0.101,-11.698 -4.496,-11.194 -13.477,3.8718 -26.795,8.2496 -40.373,11.745 -16.81,4.6992 -33.858,8.5908 -50.833,12.571 -0.24135,0.32263 -0.4157,0.67829 -0.64229,1.0093 -0.009,0.0147 -0.0819,-0.0147 -0.0916,0 -0.85164,-0.0866 -1.7222,-0.0652 -2.5692,0.0916 -2.992,0.54141 -4.7458,3.8555 -4.863,7.3405 -0.95943,7.7731 -0.80264,15.742 -1.1928,23.581 -0.64608,19.729 0.0385,39.446 0,59.182 1.5219,-14.513 0.0549,-29.109 0.64229,-43.676 0.23401,-10.95 0.20846,-21.911 0.73404,-32.849 0.46906,19.87 -0.13095,39.767 0,59.641 -0.0608,19.217 -0.60973,38.387 -2.0186,57.531 -1.0097,15.654 -1.3583,31.374 -0.91756,47.071 0.39289,28.886 1.0994,57.826 0.18351,86.709 -0.26778,1.7111 -0.34441,3.7437 0.0916,5.5053 -9.0208,2.653 -18.05,5.3332 -27.068,7.9828 -2.6673,2.1351 -7.0765,3.8492 -9.8179,0.91756 -2.8945,-26.446 1.0163,-53.055 -0.27512,-79.552 1.6917,-59.605 3.921,-119.2 2.2021,-178.83 0.59681,-9.5452 -2.896,-20.081 2.7527,-28.72 61.422,-69.531 124.09,-137.95 186.45,-206.63 z"
         inkscape:connector-curvature="0"
         style="fill:#ffcc00" />
      <path
         id="path3371"
         d="m 261.19,520.91 c 2.1584,-0.17324 5.7393,1.6941 8.04,1.7523 54.841,11.716 114.16,22.703 168.84,35.149 8.7991,3.7272 3.5463,23.71 6.7,37.829 1.3561,22.047 1.0927,44.441 -2.0615,66.279 -10.407,13.076 -30.17,-1.2616 -43.911,-1.7523 -43.104,-11.034 -86.135,-22.436 -128.95,-34.428 -15.473,-11.201 -7.0059,-36.008 -11.029,-52.775 -0.30478,-16.989 -3.1355,-34.276 0.82459,-51.023 0.28569,-0.6435 0.82669,-0.97306 1.5462,-1.0308 z"
         inkscape:connector-curvature="0"
         style="fill:#ffcc00" />
      <path
         id="path3369"
         d="m 275.31,532.25 c -0.20523,-0.006 -0.41279,0.0235 -0.61844,0.10306 -3.4462,2.209 -4.2893,6.7076 -3.8139,10.514 1.2844,17.155 2.2806,34.411 4.8446,51.435 0.30413,1.5441 0.74289,3.0482 1.2369,4.5354 -0.0176,0.0176 0.0176,0.0857 0,0.10306 -1.0681,1.1321 -1.7786,2.5456 -1.8554,4.1231 -0.26103,2.9777 0.97137,5.7243 1.9585,8.4523 0.52044,2.8026 1.5121,5.7823 4.02,7.4215 2.9827,2.0418 6.7546,2.1792 10.102,3.2985 15.981,4.3238 32.265,7.466 48.446,10.926 14.918,3.1628 29.768,6.2814 44.632,9.6893 7.5366,1.7794 15.144,3.5848 22.574,5.7723 4.1388,1.4317 8.3165,2.7147 12.163,4.8446 -0.33795,0.12362 -0.67062,0.22638 -1.0308,0.30906 -0.91131,0.0749 -1.897,0.29245 -2.8862,0.41233 2.0417,0.14887 4.1698,0.42616 6.1846,0.20612 0.17881,0.0352 0.33446,-0.0206 0.51535,0 1.6465,0.17647 3.3012,-0.22755 4.1231,-1.6492 0.0205,-0.0346 0.084,-0.0672 0.10277,-0.10277 2.0698,-1.3482 3.7277,-3.379 4.02,-5.8754 1.0828,-5.9638 0.51912,-12.02 0.92769,-18.038 0.37853,-13.561 0.0623,-27.187 -0.92769,-40.715 -0.38094,-4.4147 -0.76851,-9.0018 -2.5769,-13.091 -1.9554,-3.2831 -5.3868,-5.4716 -8.8646,-6.9062 -9.9955,-3.5954 -20.185,-6.3125 -30.511,-8.7615 -30.752,-7.6036 -61.618,-15.14 -92.46,-22.368 l -18.451,-4.4323 c -0.62879,0.1148 -1.2404,-0.18615 -1.8554,-0.20612 z"
         inkscape:connector-curvature="0" />
      <path
         id="path3367"
         d="m 286.86,539.88 c 0.74776,0.0332 1.529,0.36036 2.2677,0.41233 9.7953,1.8627 19.47,4.3014 29.171,6.5969 8.481,1.8642 16.924,4.0002 25.357,6.0815 -0.70046,1.9933 -0.85099,4.3871 -0.72154,6.4938 0.35472,11.319 1.2988,22.605 1.7523,33.912 -0.18469,3.0941 -0.47478,6.1671 -0.4123,9.2769 -0.0799,6.1344 0.88834,12.205 0.8246,18.348 -0.009,2.4402 0.22168,6.6573 -2.4738,6.3908 -0.0622,0.0297 -0.0534,0.0725 -0.10276,0.10306 -2.7162,-0.60605 -5.4263,-1.2273 -8.1431,-1.8554 -12.836,-3.3481 -25.709,-6.6757 -38.551,-9.9985 -3.1236,-1.2968 -5.3412,-4.1032 -6.9062,-7.0093 -0.54895,-0.96248 -1.0988,-1.9244 -1.6492,-2.8862 -1.5132,-7.5839 -2.4004,-15.293 -3.1954,-22.986 -1.1572,-11.417 -1.7514,-22.956 -1.9585,-34.428 -0.0602,-1.5636 0.18527,-3.2235 0.82462,-4.7415 0.63933,-1.5181 1.6728,-2.8944 3.1954,-3.6077 0.24518,-0.0666 0.47229,-0.11422 0.72154,-0.10306 z"
         inkscape:connector-curvature="0"
         style="fill:#fdf0b2" />
      <path
         id="path3365"
         d="m 354.06,555.55 c 2.2053,0.55649 4.3931,1.1876 6.5969,1.7523 -0.93133,2.101 -1.7206,4.2978 -3.0923,6.0815 2.7844,-3.4536 4.1188,2.4818 3.7108,5.0508 1.3868,13.402 1.4274,26.954 2.2677,40.406 0.27482,5.8246 0.54974,11.595 0.82462,17.42 -0.29555,1.7927 -0.88176,3.9256 -0.92771,5.8754 -4.4725,-0.99572 -8.9337,-2.0086 -13.4,-2.9892 1.2274,-0.38573 2.504,-0.86377 3.7108,-1.2369 1.0911,-0.84189 3.4526,-3.5157 1.8554,-4.9477 -1.2296,1.1478 -1.7251,3.1803 -3.0923,4.1231 1.6504,-3.6799 1.0379,-8.0416 0.82463,-12.06 -0.31599,-4.4118 -0.44172,-8.8686 -0.51539,-13.297 0.28833,-11.772 -0.7046,-23.422 -1.34,-35.149 -0.53181,-3.8157 1.3724,-7.13 2.68,-10.308 0.002,-0.26749 -0.0702,-0.47323 -0.10277,-0.72154 z"
         inkscape:connector-curvature="0"
         style="fill:#ffcc00" />
      <path
         id="path3363"
         d="m 365.51,558.54 c 11.409,2.9492 22.817,5.9132 34.222,8.8646 5.3428,1.672 10.92,2.8579 15.874,5.5662 1.5362,0.74004 2.9559,1.632 4.2261,2.7831 1.2703,1.151 2.3935,2.5322 3.0923,4.1231 1.3565,3.0795 1.0033,6.6148 1.5462,9.8954 0.92919,12.94 2.1651,25.882 2.3708,38.86 -0.14153,5.2589 0.1653,10.624 -1.1339,15.771 -0.1932,0.95464 -0.46377,1.8539 -0.8246,2.7831 -1.2969,-1.2776 -3.2007,-2.1914 -4.9477,-2.5769 -5.5067,-1.7697 -11.169,-2.6454 -16.802,-3.9169 -11.288,-2.216 -22.557,-4.8476 -33.809,-7.3185 0.29303,-0.98567 0.3785,-1.9756 0.30906,-2.8862 -0.84057,-11.285 -0.15385,-22.606 -0.4123,-33.912 -0.36561,-11.785 -1.8441,-23.491 -3.2984,-35.149 -0.21639,-0.80906 -0.28275,-1.8611 -0.41233,-2.8862 z"
         inkscape:connector-curvature="0"
         style="fill:#fdf0b2" />
      <path
         id="path3361"
         d="m 425.08,607.6 c 0.10248,0.0205 0.4195,0.0749 0.61845,0.10306 -0.6094,-0.10688 -0.72107,-0.12274 -0.61845,-0.10306 z"
         inkscape:connector-curvature="0"
         style="fill:#5251a1" />
      <path
         id="path3359"
         d="m 818.74,644.42 c -0.49102,0.0176 -1.0295,0.13389 -1.6516,0.27512 -13.477,3.9698 -26.795,8.0824 -40.373,11.928 -16.81,4.9022 -33.858,9.5617 -50.833,14.222 -4.2024,2.9071 -5.9726,6.2724 -6.3312,9.3591 -1.0869,0.9357 -1.7674,2.0389 -1.8351,3.0279 -0.95943,3.9847 -0.80264,7.7712 -1.1928,11.653 -0.64608,9.6893 0.0385,18.987 0,28.536 1.5219,-7.3759 0.0552,-14.015 0.64229,-21.196 0.23401,-5.3481 0.20847,-10.646 0.73405,-16.057 0.46905,9.4929 -0.13096,19.236 0,28.811 -0.0608,9.3029 -0.60973,18.673 -2.0186,28.261 -1.0097,7.806 -1.3583,15.548 -0.91756,23.031 0.39289,13.869 1.0995,27.663 0.18351,41.841 -0.44289,1.4728 -0.52328,3.3018 1.7434,3.5785 0.81318,-0.0176 1.6964,-0.17118 2.5692,-0.36702 -0.17675,7.9909 9.3422,13.121 11.836,-0.0916 25.43,-7.0152 55.822,-14.383 80.929,-21.838 4.3187,-1.3836 4.6458,-6.707 7.3405,-9.4508 0.56334,-0.28335 0.99158,-0.65965 1.3763,-1.1011 0.11627,-0.0567 0.24341,-0.13477 0.36702,-0.18351 0.72703,-0.88626 0.87082,-2.1397 0.18351,-3.0279 -0.0663,-0.66153 -0.16178,-1.2535 -0.0916,-1.9269 -0.37267,-15.634 -1.0812,-31.243 -0.64229,-47.071 0.65121,-10.771 2.3995,-21.787 3.5785,-32.665 0.49149,-4.0692 0.87395,-8.1 1.1011,-12.112 -1.1148,-8.607 -1.8269,-17.301 -2.0186,-26.15 -0.3847,-2.599 0.14975,-5.5827 -1.8351,-7.6157 0.83886,-1.5253 0.27365,-3.7728 -2.8444,-3.6702 z"
         inkscape:connector-curvature="0" />
      <path
         id="path3345"
         d="m 151.74,649.41 c 1.0842,-0.1242 2.3426,0.0757 3.4257,0.76126 l 8.8496,2.4741 c 64.211,18.232 128.5,36.375 192.79,54.335 41.109,11.292 82.287,22.356 123.7,32.449 7.4678,0.96601 15.541,5.9438 22.743,1.4274 6.8425,-4.1851 11.213,-11.196 17.128,-16.462 2.1944,-2.1869 6.3541,-6.1518 9.04,-2.5692 2.4101,4.4397 0.586,9.7492 1.1419,14.559 0.23578,79.209 1.9217,158.4 0.57094,237.61 -0.20259,3.8881 1.9786,8.7935 -1.0467,11.99 -4.1265,2.7572 -8.698,-1.0368 -12.941,-1.6177 -118.85,-6.7025 -227.75,-56.777 -340.38,-90.114 -7.9698,-2.5597 -16.494,-4.0472 -23.98,-7.8029 -6.9452,-5.5506 -5.9061,-15.47 -5.7094,-23.409 1.2401,-36.844 1.8446,-73.709 1.9983,-110.57 0.37924,-33.107 -0.29567,-66.16 -0.76126,-99.249 0.12948,-2.2925 1.6188,-3.5994 3.4257,-3.8063 z"
         inkscape:connector-curvature="0"
         style="fill:#ffcc00" />
      <path
         id="path3321"
         d="m 807.55,660.57 c 0.1289,7.9435 -0.20054,15.999 -0.0916,23.948 -0.0608,9.3029 -0.60972,18.673 -2.0186,28.261 -1.0097,7.806 -1.3583,15.548 -0.91756,23.031 0.39289,13.869 1.0994,27.663 0.18351,41.841 -0.0928,0.30848 -0.14064,0.59079 -0.18351,0.91756 -9.254,2.7741 -18.448,5.6085 -27.802,8.258 -14.872,4.3372 -29.941,8.4484 -44.96,12.571 -0.37762,-14.037 -0.85314,-28.079 -0.45878,-42.299 0.65122,-10.771 2.3078,-21.695 3.4867,-32.573 0.49149,-4.0692 0.87395,-8.1918 1.1011,-12.204 -1.1148,-8.607 -1.8269,-17.301 -2.0186,-26.15 -0.27482,-1.856 -0.0517,-3.9219 -0.64229,-5.6888 23.092,-6.3257 49.781,-12.854 73.038,-19.544 -0.0611,1.1429 -0.0678,2.3351 -0.18351,3.4867 -0.64608,9.6893 0.0385,18.987 0,28.536 1.5219,-7.376 0.0552,-14.015 0.64229,-21.196 0.16149,-3.6885 0.26161,-7.4061 0.45878,-11.102 0.11921,-0.0344 0.24781,-0.0573 0.36702,-0.0916 z"
         inkscape:connector-curvature="0"
         style="fill:#fdf0b2" />
      <path
         id="path3319"
         d="m 674.88,690.77 c -0.49307,0.15306 -0.99053,0.26749 -1.4688,0.4375 -16.527,4.8514 -33.101,9.5079 -49.75,13.875 0.58671,-0.19311 1.2217,-0.14762 1.8438,0.4375 0.47742,1.0907 0.4188,2.4345 0.375,3.6875 0.13976,10.805 -0.0839,21.713 -0.28125,32.562 -0.76638,30.179 0.10635,60.406 0.8125,90.562 0.75959,26.677 0.961,53.389 0.9375,80.094 -0.16591,5.096 0.24834,10.655 -0.1875,15.531 0.39294,0.1289 0.79543,0.2128 1.1875,0.34375 7.5378,2.7286 15.177,3.9267 22.844,5.25 6.7947,1.0423 13.551,2.6161 20.281,4.4062 0.37183,0.14505 0.79476,0.169 1.1875,0.25 0.63331,-26.688 0.11294,-53.408 -0.25,-80.094 -0.44075,-15.696 -0.10348,-31.408 0.90625,-47.062 1.4089,-19.144 1.9392,-38.314 2,-57.531 -0.13095,-19.875 0.46906,-39.786 0,-59.656 -0.52557,10.937 -0.48474,21.925 -0.71875,32.875 -0.58709,14.567 0.86566,29.143 -0.65625,43.656 0.0385,-19.736 -0.64608,-39.459 0,-59.188 0.33839,-6.7988 0.33702,-13.656 0.9375,-20.438 z"
         inkscape:connector-curvature="0"
         style="fill:#d38d5f" />
      <path
         id="path3307"
         d="m 623.66,705.08 c -7.4533,1.9551 -14.893,3.7845 -22.375,5.5938 0.31373,3.3688 0.23767,6.8452 0.46875,10.188 0.19173,18.403 0.88524,36.771 2,55.125 -0.22712,8.1884 -0.60227,16.323 -1.0938,24.5 -1.1789,21.927 -2.8488,43.818 -3.5,65.781 -0.43893,32.531 0.18984,65.128 0.5625,97.656 -0.0117,0.20891 0.003,0.41418 0,0.625 22.815,-6.7055 45.607,-13.377 68.438,-20 -1.4066,-0.37739 -2.8023,-0.72665 -4.2188,-1 -7.2968,-1.7359 -14.68,-2.3308 -22,-3.7812 -4.5077,-0.99126 -8.9923,-2.2819 -13.312,-4.8438 -2.7022,-1.5101 -5.4128,-3.2712 -8.25,-3.6875 -1.0419,-0.26015 -2.0055,-3.0016 -1.1875,-5.2188 0.15935,-0.19032 0.27894,-0.30185 0.4375,-0.28125 0.002,-13.457 0.24311,-26.918 0,-40.375 -0.18475,-28.878 -1.6106,-57.672 -2.0938,-86.531 -0.19702,-17.809 -0.085,-35.738 1.375,-53.406 0.81885,-11.017 1.9928,-22.055 1.6562,-33.188 -0.0103,-3.0959 1.3336,-6.5768 3.0938,-7.1562 z"
         inkscape:connector-curvature="0"
         style="fill:#a05a2c" />
      <path
         id="path3305"
         d="m 238.2,726.81 c -12.638,11.856 -4.4804,30.4 -3.8537,45.052 3.5372,17.657 2.2896,38.877 19.269,51.75 31.58,21.013 35.88,23.893 73.313,33.858 23.168,5.274 44.63,16.494 69.184,16.149 7.9146,-1.0837 29.108,2.9582 26.884,2.7527 1.8502,-12.063 10.295,-25.748 6.5146,-39.363 -1.8328,-22.044 -4.7846,-44.839 -16.241,-64.871 -11.981,-10.675 -31.155,-11.607 -46.887,-16.149 -53.436,-11.415 -71.63,-17.753 -125.06,-29.178 z"
         inkscape:connector-curvature="0" />
      <path
         id="path3299"
         d="m 261.24,745.32 c 32.916,4.8889 30.84,8.0239 61.872,14.121 -1.1651,2.3679 -1.5569,5.7392 -1.4062,8.6251 0.32259,12.115 1.275,24.175 1.6874,36.276 -0.16795,3.3115 -0.43179,6.5651 -0.37495,9.8935 -0.0725,6.5654 0.80789,13.043 0.74993,19.618 -0.006,1.8348 0.0423,4.6102 -0.74993,6.0037 -12.337,-4.1243 -24.681,-8.6496 -44.341,-16.574 -20.596,-6.9353 -28.672,-24.992 -29.061,-41.181 1.4266,-11.49 -6.9804,-26.132 4.3122,-35.515 2.0628,-1.2012 4.8532,-1.2302 7.3121,-1.2684 z"
         inkscape:connector-curvature="0"
         style="fill:#fdf0b2" />
      <path
         id="path3289"
         d="m 333.92,761.67 c 20.937,4.796 41.784,9.892 62.764,14.55 14.379,7.1375 15.888,23.35 19.022,36.081 3.2204,12.121 0.295,24.457 0.33516,36.586 2.8172,5.6395 -5.0944,20.085 -4.5251,18.84 -11.198,-7.3119 -28.667,-6.7439 -41.899,-12.364 -16.25,-5.9311 -26.865,-9.5821 -36.871,-13.205 0.56583,-0.26896 1.1153,-0.53007 1.676,-0.75695 0.88702,-0.89624 2.8906,-3.7743 1.5921,-5.2986 -0.99962,1.2219 -1.4862,3.454 -2.5977,4.4576 1.3417,-3.9173 0.92757,-8.5906 0.75416,-12.868 -0.25692,-4.6964 -0.35909,-9.4157 -0.41899,-14.13 0.2346,-12.531 -0.65662,-25.027 -1.1732,-37.511 -0.43235,-4.0619 1.1995,-7.551 2.2625,-10.934 0.009,-1.4016 -0.38843,-2.5161 -0.92179,-3.4483 z"
         inkscape:connector-curvature="0"
         style="fill:#fdf0b2" />
      <path
         id="path3287"
         d="m 206.46,894.08 0.27512,0.55054 z"
         inkscape:connector-curvature="0"
         style="fill:#5251a1" />
      <path
         id="path4193"
         d="m 612.47,898.95 0.55054,0.0916 z"
         inkscape:connector-curvature="0"
         style="fill:#5251a1" />
    </g>
  </g>
  <metadata
     id="metadata4508">
    <rdf:RDF>
      <cc:Work>
        <dc:format>image/svg+xml</dc:format>
        <dc:type
           rdf:resource="http://purl.org/dc/dcmitype/StillImage" />
        <cc:license
           rdf:resource="http://creativecommons.org/publicdomain/zero/1.0/" />
        <dc:publisher>
          <cc:Agent
             rdf:about="http://openclipart.org/">
            <dc:title>Openclipart</dc:title>
          </cc:Agent>
        </dc:publisher>
        <dc:title>Yellow detached house</dc:title>
        <dc:date>2013-07-04T12:53:21</dc:date>
        <dc:description>A simple drawing of a Yellow detached house</dc:description>
        <dc:source>https://openclipart.org/detail/179978/yellow-detached-house-by-rdevries-179978</dc:source>
        <dc:creator>
          <cc:Agent>
            <dc:title>rdevries</dc:title>
          </cc:Agent>
        </dc:creator>
        <dc:subject>
          <rdf:Bag>
            <rdf:li>building</rdf:li>
            <rdf:li>buildings</rdf:li>
            <rdf:li>detached</rdf:li>
            <rdf:li>detached house</rdf:li>
            <rdf:li>home</rdf:li>
            <rdf:li>house</rdf:li>
            <rdf:li>live</rdf:li>
            <rdf:li>living</rdf:li>
            <rdf:li>neighbourhood</rdf:li>
            <rdf:li>to live</rdf:li>
          </rdf:Bag>
        </dc:subject>
      </cc:Work>
      <cc:License
         rdf:about="http://creativecommons.org/publicdomain/zero/1.0/">
        <cc:permits
           rdf:resource="http://creativecommons.org/ns#Reproduction" />
        <cc:permits
           rdf:resource="http://creativecommons.org/ns#Distribution" />
        <cc:permits
           rdf:resource="http://creativecommons.org/ns#DerivativeWorks" />
      </cc:License>
    </rdf:RDF>
  </metadata>
  <path
     style="opacity:1;fill:#2e221c;fill-opacity:1;stroke:none;stroke-width:2.79999995;stroke-linecap:round;stroke-linejoin:bevel;stroke-miterlimit:4;stroke-dasharray:none;stroke-dashoffset:1.21209455;stroke-opacity:1;paint-order:stroke fill markers"
     id="path4532"
     d="m 187.90455,340.56791 c 3.18663,-11.07408 8.77182,-20.99419 15.4643,-30.28232 7.06244,-9.23618 14.3303,-18.32341 21.59785,-27.40342 6.14978,-7.32711 11.85796,-14.94873 17.39871,-22.73582 2.92599,-5.19233 6.13634,-10.17203 9.44827,-15.1181 3.31537,-5.52947 6.63785,-11.07187 10.04342,-16.55197 5.23376,-7.897 12.14647,-14.47707 19.15389,-20.77623 17.64987,-14.86172 11.76979,-10.07371 51.18211,-36.78505 0.80731,-0.54714 5.84527,-1.17067 6.80268,-1.12564 1.00356,0.0472 6.08497,1.19046 7.10499,1.41164 8.74935,1.98478 17.75058,2.3439 26.68141,2.72447 9.19231,-0.46601 18.0638,0.76748 27.08034,2.23917 9.45718,2.2683 18.90009,4.68495 27.36739,9.57709 3.17446,2.45189 6.06922,5.09824 8.76565,8.05327 0,0 -44.68262,33.22034 -44.68262,33.22034 v 0 c -2.26771,-2.50105 -4.6742,-4.81646 -7.44662,-6.77076 -8.15386,-4.26697 -17.19684,-6.45733 -26.22277,-8.04325 -8.77321,-1.40102 -17.52203,-1.98295 -26.41971,-1.97085 -9.19835,-0.44215 -18.40006,-1.14814 -27.46405,-2.84692 -3.16232,-0.27594 -5.65306,-0.25615 -8.64108,0.99551 -0.93438,0.3914 -3.51066,2.00313 -2.69926,1.39658 28.43646,-21.25728 56.5485,-40.96097 37.63331,-27.67857 -6.91008,6.09086 -14.00686,12.07735 -19.64861,19.39353 -3.61318,5.18691 -6.20425,10.95717 -10.02575,15.97794 -2.45008,5.68853 -7.1424,9.89069 -9.39332,15.72863 -5.28844,8.24836 -11.50318,15.76113 -17.59861,23.41557 -4.88513,5.88415 -9.24692,12.25654 -14.21254,18.05525 -1.27614,1.49024 -2.84341,2.71929 -4.07914,4.24321 -1.28851,1.58903 -2.31184,3.37588 -3.46776,5.06382 -6.99796,8.24322 -12.40605,17.26441 -15.87691,27.53775 0,0 -47.84557,29.05513 -47.84557,29.05513 z"
     inkscape:connector-curvature="0" />
  <path
     style="opacity:1;fill:#2e221c;fill-opacity:1;stroke:none;stroke-width:2.79999995;stroke-linecap:round;stroke-linejoin:bevel;stroke-miterlimit:4;stroke-dasharray:none;stroke-dashoffset:1.21209455;stroke-opacity:1;paint-order:stroke fill markers"
     id="path4534"
     d="m 108.54606,340.55621 c 0.1741,-12.28858 0.79609,-24.50599 1.951,-36.74213 1.54719,-9.60639 6.3931,-19.03683 14.40411,-24.91432 16.11143,-11.82056 32.47693,-23.29087 48.71539,-34.93631 9.28911,-3.97192 19.32555,-5.22174 28.11794,-10.36887 15.95098,-14.57794 -0.96577,1.08987 -38.72571,27.35213 -0.89536,0.62273 1.4822,-1.61123 2.09353,-2.51441 2.14413,-3.16772 2.74063,-6.71356 3.38995,-10.39301 0.94976,-10.31966 0.50613,-20.5172 2.61726,-30.6999 2.73949,-12.70419 9.85088,-23.33387 17.77155,-33.34923 6.45978,-7.49115 13.86467,-14.10227 21.58265,-20.26315 6.30394,-4.48992 10.46008,-10.34634 13.46305,-17.35231 12.25756,-27.90893 22.80727,-25.80481 57.24325,-50.10399 7.45628,-2.04733 14.78815,-1.57678 22.263,-0.19716 8.00793,1.60165 13.53594,2.98034 20.53372,-1.93482 -14.02721,9.97115 -28.01336,20.00033 -42.08164,29.91346 -1.83229,1.29112 3.38895,-2.94484 5.21237,-4.24846 15.81724,-11.3082 31.52645,-22.77473 47.58768,-33.73365 2.01963,-1.37804 4.67149,-1.4467 6.99004,-2.22274 12.45554,-4.47631 24.8789,-9.03955 37.17276,-13.96854 9.03704,-3.1328 13.5927,-2.07707 20.67555,3.78423 5.21539,3.02312 10.04681,6.5668 14.98771,10.01031 5.53455,2.69678 11.77765,3.45453 17.72606,4.96419 10.02636,1.88268 19.83386,5.33189 28.97428,9.83988 7.84303,4.09769 12.97758,2.59079 15.94009,11.75027 -15.6875,10.91975 -31.37501,21.8395 -47.06252,32.75925 0,0 41.05502,-38.29919 41.05502,-38.29919 v 0 c -14.61058,10.60871 -29.22116,21.21741 -43.83174,31.82612 2.14742,2.01742 4.36944,3.10103 1.76277,1.71561 -3.5253,-1.87367 -7.39293,-3.07299 -10.82338,-5.14529 -9.1087,-4.16933 -18.74292,-7.01867 -28.6198,-8.70258 -6.58607,-1.62448 -13.52901,-2.41664 -19.20289,-6.46731 -4.8955,-3.59715 -10.01219,-6.80767 -15.0929,-10.12694 -5.89891,-4.01083 -9.72746,-2.40764 -16.3314,-0.038 -12.52976,4.82442 -25.21519,9.2259 -37.66089,14.27135 -1.23003,0.49608 -2.485,0.93433 -3.6901,1.48825 -0.96488,0.44351 -3.66319,2.13297 -2.81065,1.49983 73.77264,-54.78759 51.90469,-37.64049 36.53437,-26.43662 -15.75918,11.48731 -31.65007,22.79285 -47.4751,34.18928 -7.58574,2.30431 -15.04119,0.83163 -22.70503,-0.5699 -6.82284,-0.802 -13.83141,-0.42529 -20.01643,2.86706 13.9473,-10.2116 27.98644,-20.29894 41.84192,-30.63479 0.87839,-0.65525 -1.99417,0.93778 -2.886,1.57463 -4.30211,3.07208 -5.67119,8.10816 -8.1387,12.50698 -3.1077,7.41525 -5.59008,14.64457 -12.19831,19.86392 -7.8815,6.0361 -15.6493,12.23293 -22.47112,19.48526 -8.3432,9.0026 -15.97641,19.17082 -19.18612,31.19676 -2.82716,9.82307 -1.98129,19.75675 -2.44972,29.88799 -2.65857,29.78484 -21.05545,35.82215 -53.80024,53.18678 -9.07516,3.77873 -19.05814,5.27711 -27.4883,10.55335 13.13923,-9.68225 26.29839,-19.3375 39.41768,-29.04674 1.4937,-1.10545 -3.09737,2.06384 -4.54022,3.23487 -5.74216,4.66037 -10.24956,10.79578 -12.09984,17.99391 -1.35202,11.8918 -2.63033,23.78023 -1.46674,35.76024 0,0 -47.16921,29.93449 -47.16921,29.93449 z"
     inkscape:connector-curvature="0" />
  <path
     style="opacity:1;fill:#2e221c;fill-opacity:1;stroke:none;stroke-width:2.79999995;stroke-linecap:round;stroke-linejoin:bevel;stroke-miterlimit:4;stroke-dasharray:none;stroke-dashoffset:1.21209455;stroke-opacity:1;paint-order:stroke fill markers"
     id="path4536"
     d="m 717.7443,248.65604 c 13.94222,-3.69714 27.24097,-9.35949 40.66293,-14.63247 22.83993,-8.37248 45.13071,-21.59005 69.85955,-23.05074 11.33788,1.26451 13.62732,10.14177 14.49591,19.97199 -0.24135,8.10348 0.89856,16.0815 1.89204,24.09653 0.46591,7.62952 1.50633,15.11189 2.88211,22.62138 0.53868,7.22479 3.4106,12.39314 9.11915,16.6934 6.15438,4.71334 11.07393,10.51567 15.27585,16.9676 4.41898,6.76982 8.55357,13.82099 11.94031,21.1718 2.09659,4.42786 5.112,8.26255 7.43584,12.55444 0,0 -45.6313,32.16748 -45.6313,32.16748 v 0 c -2.28069,-4.46294 -5.48391,-8.36217 -7.51455,-12.97706 -3.00501,-7.1723 -6.89764,-14.06628 -11.27568,-20.47733 -4.00024,-5.89823 -8.5976,-11.22266 -14.3317,-15.53423 -6.29411,-5.30484 -10.80311,-11.45472 -11.37095,-19.95559 -1.40274,-7.63079 -2.92774,-15.1334 -3.03271,-22.93646 -0.93729,-8.11862 -2.61383,-16.15347 -2.00814,-24.36896 -0.32544,-7.63874 0.51028,-13.04824 -8.739,-13.42085 -23.80648,2.24136 -45.37931,14.51838 -67.33616,23.00404 -14.24367,5.98069 -28.42134,12.48259 -43.60584,15.73001 0,0 41.28234,-37.62498 41.28234,-37.62498 z"
     inkscape:connector-curvature="0" />
  <path
     style="opacity:1;fill:#2e221c;fill-opacity:1;stroke:none;stroke-width:2.79999995;stroke-linecap:round;stroke-linejoin:bevel;stroke-miterlimit:4;stroke-dasharray:none;stroke-dashoffset:1.21209455;stroke-opacity:1;paint-order:stroke fill markers"
     id="path4538"
     d="m 754.64994,145.84817 c 15.95336,-11.67748 33.7622,-20.78318 51.16035,-30.13764 12.5927,-6.19066 24.8468,-13.04103 37.48924,-19.13261 3.85989,-1.85984 12.86101,-6.18466 17.5034,-7.29998 2.03056,-0.48784 4.16146,-0.35614 6.2422,-0.53421 1.58672,0.44237 3.3273,0.51454 4.76018,1.3271 7.6136,4.31753 7.93194,15.03632 8.49358,22.57838 0.0986,7.64848 0.1819,15.34321 2.33237,22.74004 2.62712,4.73707 8.7299,4.42821 13.50245,4.72875 9.43621,0.64965 18.95381,1.948 27.89771,5.11498 9.0299,3.88587 13.38089,11.15159 15.40309,20.37417 1.28379,10.38407 1.07913,20.88213 1.10963,31.3264 0.008,8.41029 -0.0169,16.82057 -0.0305,25.23084 -0.007,5.08872 -0.004,2.54966 -0.009,7.61719 0,0 -46.92376,29.76768 -46.92376,29.76768 v 0 c 0.012,-5.08062 0.004,-2.53436 0.0233,-7.63878 0.0464,-8.46567 0.13765,-16.93089 0.27761,-25.39557 0.12586,-10.09038 0.33771,-20.22185 -0.71341,-30.27371 -1.26263,-7.50451 -4.05987,-13.0795 -11.69813,-15.77057 -8.93325,-2.53851 -18.21071,-3.4446 -27.46609,-3.96417 -7.19097,-0.98812 -13.97389,-2.82727 -17.50672,-9.81702 -2.61293,-7.7688 -2.90971,-16.00715 -2.7032,-24.14681 -0.15362,-3.7569 0.76103,-15.04328 -4.31873,-16.58672 -1.03563,-0.31467 -2.15872,-0.16165 -3.23808,-0.24248 -20.70252,4.13418 -38.96154,18.32741 -58.04971,26.66151 -18.35614,10.1542 -36.21282,21.07783 -54.06266,32.0376 0,0 40.52469,-38.56437 40.52469,-38.56437 z"
     inkscape:connector-curvature="0" />
  <path
     inkscape:connector-curvature="0"
     d="m 900.91672,659.95163 c 11.67748,15.95336 20.78318,33.7622 30.13764,51.16035 6.19066,12.5927 13.04103,24.8468 19.13261,37.48924 1.85984,3.85989 6.18466,12.86101 7.29998,17.5034 0.48784,2.03056 0.35614,4.16146 0.53421,6.2422 -0.44237,1.58672 -0.51454,3.3273 -1.3271,4.76018 -4.31753,7.6136 -15.03632,7.93194 -22.57838,8.49358 -7.64848,0.0986 -15.34321,0.1819 -22.74004,2.33237 -4.73707,2.62712 -4.42821,8.7299 -4.72875,13.50245 -0.64965,9.43621 -1.948,18.95381 -5.11498,27.89771 -3.88587,9.0299 -11.15159,13.38089 -20.37417,15.40309 -10.38407,1.28379 -20.88212,1.07913 -31.3264,1.10963 -8.41029,0.008 -16.82057,-0.0169 -25.23084,-0.0305 -5.08872,-0.007 -2.54966,-0.004 -7.61719,-0.009 0,0 -29.76768,-46.92376 -29.76768,-46.92376 v 0 c 5.08062,0.012 2.53436,0.004 7.63878,0.0233 8.46567,0.0464 16.93089,0.13765 25.39557,0.27761 10.09039,0.12586 20.22185,0.33771 30.27371,-0.71341 7.50452,-1.26263 13.07951,-4.05987 15.77057,-11.69813 2.53851,-8.93325 3.4446,-18.21071 3.96417,-27.46609 0.98812,-7.19097 2.82727,-13.97389 9.81702,-17.50672 7.7688,-2.61293 16.00715,-2.90971 24.14681,-2.7032 3.7569,-0.15362 15.04328,0.76103 16.58672,-4.31873 0.31467,-1.03563 0.16165,-2.15872 0.24248,-3.23808 -4.13418,-20.70252 -18.32741,-38.96154 -26.66151,-58.04971 -10.1542,-18.35614 -21.07783,-36.21282 -32.03759,-54.06266 0,0 38.56436,40.52469 38.56436,40.52469 z"
     id="path4540"
     style="opacity:1;fill:#2e221c;fill-opacity:1;stroke:none;stroke-width:2.79999995;stroke-linecap:round;stroke-linejoin:bevel;stroke-miterlimit:4;stroke-dasharray:none;stroke-dashoffset:1.21209455;stroke-opacity:1;paint-order:stroke fill markers" />
  <path
     inkscape:connector-curvature="0"
     d="m 318.0952,843.37393 c -11.07408,-3.18663 -20.99419,-8.77181 -30.28232,-15.4643 -9.23618,-7.06243 -18.32341,-14.33029 -27.40342,-21.59785 -7.32711,-6.14978 -14.94873,-11.85796 -22.73582,-17.39871 -5.19233,-2.92599 -10.17203,-6.13634 -15.1181,-9.44827 -5.52947,-3.31537 -11.07187,-6.63785 -16.55197,-10.04342 -7.897,-5.23376 -14.47707,-12.14647 -20.77623,-19.15389 -14.86172,-17.64987 -10.07372,-11.76979 -36.78505,-51.18211 -0.54714,-0.80731 -1.17067,-5.84527 -1.12564,-6.80268 0.0472,-1.00356 1.19046,-6.08497 1.41164,-7.10499 1.98478,-8.74935 2.3439,-17.75058 2.72447,-26.68141 -0.46601,-9.19231 0.76748,-18.0638 2.23917,-27.08034 2.2683,-9.45718 4.68495,-18.90009 9.57709,-27.36739 2.45189,-3.17446 5.09824,-6.06922 8.05327,-8.76565 0,0 33.22033,44.68262 33.22033,44.68262 v 0 c -2.50104,2.26771 -4.81645,4.6742 -6.77076,7.44662 -4.26696,8.15386 -6.45732,17.19684 -8.04324,26.22277 -1.40102,8.77321 -1.98295,17.52203 -1.97085,26.41971 -0.44215,9.19835 -1.14814,18.40006 -2.84692,27.46405 -0.27594,3.16232 -0.25615,5.65306 0.99551,8.64108 0.3914,0.93438 2.00313,3.51066 1.39658,2.69926 -21.25728,-28.43646 -40.96097,-56.5485 -27.67857,-37.63331 6.09086,6.91008 12.07735,14.00686 19.39353,19.64861 5.18691,3.61318 10.95716,6.20425 15.97794,10.02575 5.68853,2.45008 9.89069,7.1424 15.72863,9.39332 8.24836,5.28844 15.76113,11.50318 23.41557,17.59861 5.88415,4.88513 12.25654,9.24692 18.05525,14.21254 1.49024,1.27614 2.71929,2.84342 4.24321,4.07914 1.58903,1.28852 3.37588,2.31184 5.06382,3.46777 8.24322,6.99795 17.26441,12.40604 27.53775,15.8769 0,0 29.05513,47.84557 29.05513,47.84557 z"
     id="path4542"
     style="opacity:1;fill:#2e221c;fill-opacity:1;stroke:none;stroke-width:2.79999995;stroke-linecap:round;stroke-linejoin:bevel;stroke-miterlimit:4;stroke-dasharray:none;stroke-dashoffset:1.21209455;stroke-opacity:1;paint-order:stroke fill markers" />
  <path
     inkscape:connector-curvature="0"
     d="m 74.508752,697.68748 c -11.67748,15.95336 -20.78318,33.7622 -30.13764,51.16035 -6.19066,12.5927 -13.04103,24.8468 -19.13261,37.48924 -1.85984,3.85989 -6.18466,12.86101 -7.29998,17.5034 -0.48784,2.03056 -0.35614,4.16146 -0.53421,6.2422 0.44237,1.58672 0.51454,3.3273 1.3271,4.76018 4.31753,7.6136 15.03632,7.93194 22.57838,8.49358 7.64848,0.0986 15.34321,0.1819 22.74004,2.33237 4.73707,2.62712 4.42821,8.7299 4.72875,13.50245 0.64965,9.43621 1.948,18.95381 5.11498,27.89771 3.88587,9.0299 11.15159,13.38089 20.37417,15.40309 10.384068,1.28379 20.882118,1.07913 31.326398,1.10963 8.41029,0.008 16.82057,-0.0169 25.23084,-0.0305 5.08872,-0.007 2.54966,-0.004 7.61719,-0.009 0,0 29.76768,-46.92376 29.76768,-46.92376 v 0 c -5.08062,0.012 -2.53436,0.004 -7.63878,0.0233 -8.46567,0.0464 -16.93089,0.13765 -25.39557,0.27761 -10.09039,0.12586 -20.22185,0.33771 -30.27371,-0.71341 -7.50452,-1.26263 -13.07951,-4.05987 -15.77057,-11.69813 -2.53851,-8.93325 -3.4446,-18.21071 -3.96417,-27.46609 -0.98812,-7.19097 -2.82727,-13.97389 -9.817018,-17.50672 -7.7688,-2.61293 -16.00715,-2.90971 -24.14681,-2.7032 -3.7569,-0.15362 -15.04328,0.76103 -16.58672,-4.31873 -0.31467,-1.03563 -0.16165,-2.15872 -0.24248,-3.23808 4.13418,-20.70252 18.32741,-38.96154 26.66151,-58.04971 10.1542,-18.35614 21.077828,-36.21282 32.037588,-54.06266 0,0 -38.564358,40.52469 -38.564358,40.52469 z"
     id="path4544"
     style="opacity:1;fill:#2e221c;fill-opacity:1;stroke:none;stroke-width:2.79999995;stroke-linecap:round;stroke-linejoin:bevel;stroke-miterlimit:4;stroke-dasharray:none;stroke-dashoffset:1.21209455;stroke-opacity:1;paint-order:stroke fill markers" />
  <path
     inkscape:connector-curvature="0"
     d="m 1029.3241,748.70918 c 3.6971,13.94222 9.3595,27.24097 14.6324,40.66293 8.3725,22.83993 21.5901,45.13071 23.0508,69.85955 -1.2645,11.33788 -10.1418,13.62732 -19.972,14.49591 -8.1035,-0.24135 -16.0815,0.89856 -24.0965,1.89204 -7.6296,0.46591 -15.1119,1.50633 -22.6214,2.88211 -7.22481,0.53868 -12.39315,3.4106 -16.69341,9.11915 -4.71334,6.15438 -10.51568,11.07393 -16.96761,15.27585 -6.76982,4.41899 -13.82098,8.55358 -21.17179,11.94032 -4.42786,2.09659 -8.26255,5.112 -12.55444,7.43584 0,0 -32.16749,-45.63131 -32.16749,-45.63131 v 0 c 4.46294,-2.28069 8.36218,-5.48391 12.97707,-7.51455 7.1723,-3.00501 14.06628,-6.89764 20.47732,-11.27568 5.89824,-4.00024 11.22266,-8.5976 15.53423,-14.3317 5.30484,-6.29411 11.45472,-10.80311 19.9556,-11.37095 7.63079,-1.40274 15.1334,-2.92774 22.93646,-3.03271 8.11866,-0.93729 16.15346,-2.61383 24.36896,-2.00814 7.6387,-0.32544 13.0482,0.51028 13.4209,-8.739 -2.2414,-23.80648 -14.5184,-45.37931 -23.0041,-67.33616 -5.9807,-14.24367 -12.48259,-28.42134 -15.73,-43.60584 0,0 37.625,41.28234 37.625,41.28234 z"
     id="path4546"
     style="opacity:1;fill:#2e221c;fill-opacity:1;stroke:none;stroke-width:2.79999995;stroke-linecap:round;stroke-linejoin:bevel;stroke-miterlimit:4;stroke-dasharray:none;stroke-dashoffset:1.21209455;stroke-opacity:1;paint-order:stroke fill markers" />
</svg>
